# xmcd CD database file
#
# Track frame offsets:
#	187
#	20167
#	44895
#	61560
#	81242
#	103100
#	126027
#	143310
#	164405
#	185075
#
# Disc length: 2861 seconds
#
# Revision: 0
# Processed by: cddbd v1.5.1PL2 Copyright (c) Steve Scherf et al.
# Submitted via: CDex 1.51
#
DISCID=880b2b0a
DTITLE=横山輝一 - JACK
DYEAR=1900
DGENRE=Japanese Pop
TTITLE0=COME ON D.C.
TTITLE1=TELL ME WHY
TTITLE2=TAKES TIME
TTITLE3=SHOES IN MY POCKET
TTITLE4=RANDY GIRL
TTITLE5=WE GET A CHILL
TTITLE6=MAKES NO SENSE
TTITLE7=贅沢な選択
TTITLE8=STATION
TTITLE9=ETERNAL
EXTD=
EXTT0=
EXTT1=
EXTT2=
EXTT3=
EXTT4=
EXTT5=
EXTT6=
EXTT7=
EXTT8=
EXTT9=
PLAYORDER=
